# xmcd
#
# Track frame offsets: 
#        151
#        17400
#        36619
#        57831
#        74501
#        96783
#        113800
#        129419
#        149488
#        168137
#        194656
#
# Disc length: 3312 seconds
#
# Revision: 3
# Processed by: cddbd v1.5.2PL0 Copyright (c) Steve Scherf et al.
# Submitted via: ExactAudioCopy v1.0b3
#
DISCID=9e0cee0b
DTITLE=BodySlam - Believe
DYEAR=2005
DGENRE=Modern Rock
TTITLE0=ชีวิตเป็นของเรา
TTITLE1=ขอบฟ้า
TTITLE2=คนที่ถูกรัก
TTITLE3=ความรักทำให้คนตาบอด
TTITLE4=ความเชื่อ feat. แอ๊ด คาราบาว
TTITLE5=พูดในใจ
TTITLE6=รักก็เป็นอย่างนี้
TTITLE7=ห้ามใจ
TTITLE8=ไม่รู้เมื่อไหร่
TTITLE9=เจ็บจนวันนี้
TTITLE10=DATA
EXTD=YEAR: 2005\n
EXTT0=
EXTT1=
EXTT2=
EXTT3=
EXTT4=
EXTT5=
EXTT6=
EXTT7=
EXTT8=
EXTT9=
EXTT10=
PLAYORDER=
